# xmcd
#
# Track frame offsets: 
#        150
#        21802
#        38207
#        53079
#        64901
#        82141
#        94574
#        109301
#        129355
#        145413
#        157433
#        174399
#        187382
#        204203
#        219040
#        234237
#        256208
#        268513
#        283500
#        298281
#
# Disc length: 4178 seconds
#
# Revision: 3
# Processed by: cddbd v1.5.2PL0 Copyright (c) Steve Scherf et al.
# Submitted via: ExactAudioCopyFreeDBPlugin 1.0
#
DISCID=2d105014
DTITLE=Various Artist - Internationaler ADAC Truck Grand-Prix 2007 (C
DTITLE=D 2)
DYEAR=2007
DGENRE=Country
TTITLE0=Jonny Hill - Ruf Teddybär Eins-Vier
TTITLE1=Tom Astor - Irgendwie wird's schon geh'n
TTITLE2=Linda Feller - Ich führ Buch über jede Träne
TTITLE3=Dave Dudley - I'm Proud To Say I Drive A Truck
TTITLE4=Truck Stop - Damenwahl (Jetzt geht's los)
TTITLE5=The Twang - The Boxer
TTITLE6=NightHawk - Red Wine And A Good Cigar
TTITLE7=Gunter Gabriel - Er ist ein Kerl (Der 30 Tonner Diesel)
TTITLE8=Dirk Daniels - Immer mehr
TTITLE9=Mark Merritt - A Good Truck
TTITLE10=Joe Hodgkins - Two Hearts In The Wind
TTITLE11=Country Rose - Nimm die Hand von meinem Knie
TTITLE12=Larry Schuba and Western Union - Danke
TTITLE13=Rubber Duck - Duelling Fiddle
TTITLE14=Dirk Busch - Melinda
TTITLE15=Herrmann Lammers Meyer - Highway Heroes
TTITLE16=George Kent - The Great South State Truckstop Disaster
TTITLE17=Mega Band - Nix gibt's
TTITLE18=The Lennerockers - Far From The Charts
TTITLE19=Dagmar Lay D. and Don Jensen - Es wird Zeit dass ich geh' (Walk
TTITLE19=ing Away)
EXTD=YEAR: 2007
EXTT0=
EXTT1=
EXTT2=
EXTT3=
EXTT4=
EXTT5=
EXTT6=
EXTT7=
EXTT8=
EXTT9=
EXTT10=
EXTT11=
EXTT12=
EXTT13=
EXTT14=
EXTT15=
EXTT16=
EXTT17=
EXTT18=
EXTT19=
PLAYORDER=
